/vscmnt/brussel_pixiu_data/_data_brussel/112/vsc11236/PredSimResults/SUBJ06_Falisse2022/weighted/worker_04.mot
version=1
nRows=4
nColumns=124
inDegrees=yes
endheader
                time	         pelvis_tilt	         pelvis_list	     pelvis_rotation	           pelvis_tx	           pelvis_ty	           pelvis_tz	       hip_flexion_r	     hip_adduction_r	      hip_rotation_r	        knee_angle_r	       ankle_angle_r	    subtalar_angle_r	         mtp_angle_r	       hip_flexion_l	     hip_adduction_l	      hip_rotation_l	        knee_angle_l	       ankle_angle_l	    subtalar_angle_l	         mtp_angle_l	    lumbar_extension	      lumbar_bending	     lumbar_rotation	          arm_flex_r	           arm_add_r	           arm_rot_r	        elbow_flex_r	          arm_flex_l	           arm_add_l	           arm_rot_l	        elbow_flex_l	glut_med1_r/activation	glut_med2_r/activation	glut_med3_r/activation	glut_min1_r/activation	glut_min2_r/activation	glut_min3_r/activation	semimem_r/activation	semiten_r/activation	bifemlh_r/activation	bifemsh_r/activation	    sar_r/activation	add_long_r/activation	add_brev_r/activation	add_mag1_r/activation	add_mag2_r/activation	add_mag3_r/activation	    tfl_r/activation	   pect_r/activation	   grac_r/activation	glut_max1_r/activation	glut_max2_r/activation	glut_max3_r/activation	iliacus_r/activation	  psoas_r/activation	quad_fem_r/activation	    gem_r/activation	   peri_r/activation	rect_fem_r/activation	vas_med_r/activation	vas_int_r/activation	vas_lat_r/activation	med_gas_r/activation	lat_gas_r/activation	 soleus_r/activation	tib_post_r/activation	flex_dig_r/activation	flex_hal_r/activation	tib_ant_r/activation	per_brev_r/activation	per_long_r/activation	per_tert_r/activation	ext_dig_r/activation	ext_hal_r/activation	glut_med1_l/activation	glut_med2_l/activation	glut_med3_l/activation	glut_min1_l/activation	glut_min2_l/activation	glut_min3_l/activation	semimem_l/activation	semiten_l/activation	bifemlh_l/activation	bifemsh_l/activation	    sar_l/activation	add_long_l/activation	add_brev_l/activation	add_mag1_l/activation	add_mag2_l/activation	add_mag3_l/activation	    tfl_l/activation	   pect_l/activation	   grac_l/activation	glut_max1_l/activation	glut_max2_l/activation	glut_max3_l/activation	iliacus_l/activation	  psoas_l/activation	quad_fem_l/activation	    gem_l/activation	   peri_l/activation	rect_fem_l/activation	vas_med_l/activation	vas_int_l/activation	vas_lat_l/activation	med_gas_l/activation	lat_gas_l/activation	 soleus_l/activation	tib_post_l/activation	flex_dig_l/activation	flex_hal_l/activation	tib_ant_l/activation	per_brev_l/activation	per_long_l/activation	per_tert_l/activation	ext_dig_l/activation	ext_hal_l/activation	 ercspn_r/activation	 ercspn_l/activation	 intobl_r/activation	 intobl_l/activation	 extobl_r/activation	 extobl_l/activation	
          1.24289213	        -10.20562889	         -3.52763958	          3.09348754	          1.37961026	          0.92622596	         -0.00652019	         33.83787651	          4.40648893	          1.70218364	         -3.99343959	         10.59156904	         -8.89443263	          0.18637241	         -9.42900767	         -0.80715207	         11.28452326	         -3.99347573	          6.22814806	         -5.34950386	         30.57156851	          2.39018039	          2.22680777	         -1.97899634	         -7.51595243	        -13.44977984	         19.32293581	         20.62104322	          3.44865685	        -13.46785695	         19.26369997	         68.95408642	          0.05095499	          0.01207149	          0.01000014	          0.09354337	          0.01207203	          0.01207135	          0.20574390	          0.02631920	          0.02078118	          0.01000027	          0.01869375	          0.04077345	          0.16822102	          0.16549344	          0.13136934	          0.07038153	          0.01000482	          0.02123231	          0.08465441	          0.01000108	          0.01000016	          0.05791508	          0.02353242	          0.02129647	          0.28873694	          0.01000014	          0.01000014	          0.02009658	          0.14388782	          0.14703453	          0.12681886	          0.01000000	          0.01000002	          0.01000000	          0.01207102	          0.01000015	          0.01000013	          0.41420973	          0.19580519	          0.14068432	          0.23909541	          0.47423649	          0.09770586	          0.16731263	          0.15877920	          0.15175213	          0.16295857	          0.21084290	          0.19936864	          0.01000023	          0.01000020	          0.01000017	          0.05886097	          0.10825884	          0.01027766	          0.01000055	          0.01000091	          0.01000147	          0.01000031	          0.26470451	          0.01000967	          0.02122073	          0.03733236	          0.02780319	          0.01207265	          0.32838039	          0.47322761	          0.03735264	          0.03734441	          0.19534538	          0.09210621	          0.01000104	          0.01000099	          0.01000084	          0.38663830	          0.48788801	          0.37523935	          0.33372504	          0.34496204	          0.34015101	          0.01457213	          0.01000015	          0.01000020	          0.01000022	          0.01000010	          0.01000070	          0.06004079	          0.02496964	          0.03509507	          0.01000006	          0.05780901	          0.01000001	
          1.25532105	        -10.19204095	         -3.82378943	          3.32586204	          1.39666143	          0.92468606	         -0.00631456	         33.01955752	          4.82367025	          2.03148004	         -4.01555359	          9.44739513	         -9.39656038	          0.18869274	         -9.45809405	         -1.06075711	         10.76968282	         -5.87581696	          6.10176555	         -4.83260302	         32.35480492	          2.55693804	          2.69039587	         -2.03167453	         -8.20383030	        -13.45610721	         19.25839211	         19.53466735	          2.80891896	        -13.48385694	         19.21974680	         71.14461429	          0.04221105	          0.01000007	          0.01000026	          0.07749122	          0.01000049	          0.01000011	          0.17043795	          0.02180284	          0.01721513	          0.01000004	          0.01548597	          0.03377677	          0.13935412	          0.13709486	          0.10882628	          0.05830399	          0.01000023	          0.01759008	          0.07012808	          0.01000048	          0.06043354	          0.04797690	          0.01949424	          0.01764198	          0.24719825	          0.06549221	          0.01000082	          0.01664807	          0.11919660	          0.12180332	          0.10505667	          0.02060852	          0.02123402	          0.01906280	          0.01000003	          0.01457315	          0.01758971	          0.34313067	          0.22049818	          0.14996546	          0.19806634	          0.45272054	          0.08093940	          0.13860158	          0.13153245	          0.12571123	          0.13499521	          0.17466198	          0.16515669	          0.01000164	          0.01000082	          0.01000051	          0.04876035	          0.08968155	          0.01000038	          0.01000034	          0.01000064	          0.01000169	          0.01000079	          0.21928087	          0.01000128	          0.01757970	          0.03092627	          0.02303225	          0.01000146	          0.27203008	          0.39940751	          0.03094290	          0.03093618	          0.16182381	          0.07630065	          0.01000057	          0.01000056	          0.01000047	          0.32029059	          0.42629874	          0.36983998	          0.32043877	          0.32892980	          0.33241330	          0.01207154	          0.01000018	          0.01000016	          0.01000018	          0.01000006	          0.01000029	          0.04973770	          0.04077520	          0.02907271	          0.01169644	          0.04788889	          0.01000007	
          1.26774997	        -10.17319891	         -4.11446812	          3.53872102	          1.41395073	          0.92324326	         -0.00608936	         32.11540048	          5.20139097	          2.38410518	         -4.15611818	          8.46315063	         -9.89851018	          0.17637995	         -9.37804779	         -1.30680996	         10.21714783	         -7.96885671	          5.85541098	         -4.32023862	         34.08342619	          2.73919723	          3.15428569	         -2.07512168	         -8.91970404	        -13.47149511	         19.19159197	         18.59010369	          2.10630477	        -13.49587129	         19.16933164	         73.23007545	          0.13951335	          0.17428027	          0.21980153	          0.07602970	          0.12523669	          0.11794290	          0.14119056	          0.04929179	          0.03105545	          0.05124065	          0.01457157	          0.02798067	          0.11544076	          0.11356924	          0.09015160	          0.04829900	          0.01000264	          0.01457228	          0.05863581	          0.10467422	          0.05861966	          0.03974404	          0.01614902	          0.01461461	          0.20477892	          0.05425458	          0.16335451	          0.01379125	          0.09874231	          0.10090171	          0.08702881	          0.01707207	          0.01759024	          0.01579159	          0.01268016	          0.01207247	          0.01457134	          0.50876428	          0.28586434	          0.16994065	          0.37164214	          0.56463905	          0.23199377	          0.19900006	          0.10896128	          0.10413898	          0.16691933	          0.14468979	          0.13681556	          0.01000172	          0.01000065	          0.01000039	          0.04039301	          0.07429213	          0.03830107	          0.01000148	          0.01000117	          0.01000161	          0.01000055	          0.18165203	          0.04314580	          0.01456376	          0.02561946	          0.01908000	          0.01000073	          0.22534932	          0.33086858	          0.02563307	          0.02562759	          0.13405459	          0.06320735	          0.01000042	          0.01000041	          0.01000035	          0.26532821	          0.35314525	          0.34732609	          0.31066954	          0.32423063	          0.32311682	          0.01000010	          0.01000017	          0.01000012	          0.01000025	          0.01000008	          0.01000044	          0.05848712	          0.04616872	          0.02563822	          0.01000001	          0.03967108	          0.01000004	
          1.28017889	        -10.15216014	         -4.38971434	          3.73283745	          1.43125804	          0.92203375	         -0.00580743	         31.14931147	          5.56828673	          2.72615661	         -4.19178617	          7.47927838	        -10.40338531	          0.16515284	         -9.14974137	         -1.54223693	          9.65671100	        -10.30281667	          5.46161037	         -3.80206315	         35.68968123	          2.91962304	          3.60266550	         -2.11065372	         -9.61679720	        -13.48260269	         19.13372008	         17.76213868	          1.38511791	        -13.50790299	         19.12485097	         75.15587920	          0.21796671	          0.27708369	          0.34599304	          0.06298413	          0.11447889	          0.18853650	          0.11696206	          0.06721218	          0.04896897	          0.04244771	          0.01207123	          0.02317920	          0.09563097	          0.09408080	          0.07468176	          0.05247440	          0.01000044	          0.01207264	          0.06083848	          0.17485244	          0.11167357	          0.04960529	          0.01337783	          0.01210673	          0.16963921	          0.04494482	          0.19397137	          0.01142468	          0.08179809	          0.08358693	          0.07209462	          0.01414248	          0.01457174	          0.01308173	          0.01050426	          0.01000098	          0.01207095	          0.58089249	          0.28313254	          0.15666475	          0.50526359	          0.60060257	          0.27627578	          0.16487866	          0.09026336	          0.08626857	          0.15370713	          0.11986085	          0.11333782	          0.01017319	          0.01000122	          0.01000062	          0.03346152	          0.06154354	          0.03446260	          0.04612401	          0.01000436	          0.01003320	          0.04972633	          0.15048033	          0.03574622	          0.01206517	          0.02122330	          0.01580598	          0.01000102	          0.18667903	          0.27409103	          0.02123441	          0.02122995	          0.11105062	          0.05236088	          0.01093940	          0.01112081	          0.01152664	          0.21979746	          0.29254497	          0.31524921	          0.29196194	          0.30161151	          0.29995553	          0.01000004	          0.01014740	          0.01209147	          0.01000027	          0.01000007	          0.01000027	          0.07241937	          0.07009374	          0.02123868	          0.01000001	          0.03286346	          0.01000002	
